# xmcd
#
# Track frame offsets: 
#        150
#        28968
#        61483
#        83408
#        101502
#        123023
#        134585
#        163152
#        197179
#        210860
#        226861
#        249110
#        267036
#        279175
#        299399
#        310900
#        330893
#
# Disc length: 4637 seconds
#
# Revision: 0
# Processed by: cddbd v1.5.2PL0 Copyright (c) Steve Scherf et al.
# Submitted via: ExactAudioCopy v1.3
#
DISCID=e0121b11
DTITLE=Lightnin’ Hopkins - Four Classic Albums
DYEAR=2016
DGENRE=Blues
TTITLE0=Take it easy - Lightnin' in New York
TTITLE1=Mighty crazy - Lightnin' in New York
TTITLE2=Your own fault, Baby, to treat me the way you do - Lightnin' i
TTITLE2=n New York
TTITLE3=I've had my fun if I don't get well no more - Lightnin' in New
TTITLE3=York
TTITLE4=The trouble blues - Lightnin' in New York
TTITLE5=Lightnin's piano boogie - Lightnin' in New York
TTITLE6=Wonder why - Lightnin' in New York
TTITLE7=Mister Charlie - Lightnin' in New York
TTITLE8=Mojo hand - Mojo Hand
TTITLE9=Coffee for Mama - Mojo Hand
TTITLE10=Awful dream - Mojo Hand
TTITLE11=Black mare trot - Mojo Hand
TTITLE12=Have you ever loved a woman - Mojo Hand
TTITLE13=Glory Bee - Mojo Hand
TTITLE14=Sometimes she will - Mojo Hand
TTITLE15=Shine on, moon! - Mojo Hand
TTITLE16=Santa - Mojo Hand
EXTD=
EXTT0=
EXTT1=
EXTT2=
EXTT3=
EXTT4=
EXTT5=
EXTT6=
EXTT7=
EXTT8=
EXTT9=
EXTT10=
EXTT11=
EXTT12=
EXTT13=
EXTT14=
EXTT15=
EXTT16=
PLAYORDER=
